<?xml version="1.0" encoding="UTF-8" standalone="no"?>
<svg
   xmlns:dc="http://purl.org/dc/elements/1.1/"
   xmlns:cc="http://creativecommons.org/ns#"
   xmlns:rdf="http://www.w3.org/1999/02/22-rdf-syntax-ns#"
   xmlns:svg="http://www.w3.org/2000/svg"
   xmlns="http://www.w3.org/2000/svg"
   xmlns:sodipodi="http://sodipodi.sourceforge.net/DTD/sodipodi-0.dtd"
   xmlns:inkscape="http://www.inkscape.org/namespaces/inkscape"
   version="1.1"
   width="455.83673"
   height="243.64954"
   id="svg3721"
   sodipodi:docname="logo_cz.svg"
   inkscape:version="0.92.3 (2405546, 2018-03-11)">
  <metadata
     id="metadata3727">
    <rdf:RDF>
      <cc:Work
         rdf:about="">
        <dc:format>image/svg+xml</dc:format>
        <dc:type
           rdf:resource="http://purl.org/dc/dcmitype/StillImage" />
        <dc:title></dc:title>
      </cc:Work>
    </rdf:RDF>
  </metadata>
  <defs
     id="defs3725" />
  <sodipodi:namedview
     pagecolor="#ffffff"
     bordercolor="#666666"
     borderopacity="1"
     objecttolerance="10"
     gridtolerance="10"
     guidetolerance="10"
     inkscape:pageopacity="0"
     inkscape:pageshadow="2"
     inkscape:window-width="1366"
     inkscape:window-height="705"
     id="namedview3723"
     showgrid="false"
     inkscape:zoom="1.4897651"
     inkscape:cx="227.91833"
     inkscape:cy="124.19786"
     inkscape:window-x="-8"
     inkscape:window-y="-8"
     inkscape:window-maximized="1"
     inkscape:current-layer="svg3721"
     fit-margin-top="0"
     fit-margin-left="0"
     fit-margin-right="0"
     fit-margin-bottom="0" />
  <path
     d="m 139.71834,27.9819 c 3.3528,2.9109 7.8341,6.855 11.8808,11.1186 4.0468,4.2636 7.6578,8.8651 11.17,10.736 3.2142,1.7121 7.5798,3.0279 11.9979,4.5969 3.8985,1.3847 7.8384,3.0388 11.0647,4.318 l 7.3954,-33.3331 4.5328,21.723 2.1501,-13.966 3.6644,20.393 4.0719,-10.5214 1.5721,-7.9098 -0.6823,-2.5078 1.1682,-0.005 5.3535,-32.6242 5.0941,32.2642 1.0661,0.0119 -0.3738,2.8202 1.11,7.4897 5.5809,7.6757 2.0766,-21.1825 2.5175,23.5613 1.0814,-9.0417 1.8779,15.7062 0.2396,2.0021 2.1883,-11.5168 3.0969,16.2989 0.6426,3.3817 9.4286,-0.7041 0.2165,-3.0957 4.3396,-24.2408 4.7908,24.3624 -0.003,-6.2031 5.1667,-36.0623 3.3256,35.7063 0.1854,8.1513 30.4546,-2.9707 13.8915,15.05 h 5.3957 v 14.2886 l 6.0012,2.8244 0.4439,-8.3129 0.4672,8.7415 2.2513,1.0596 0.9422,-12.2306 1.0131,13.151 2.1478,1.0111 1.0358,-9.4736 1.1137,10.485 1.9157,0.902 0.2681,-3.4778 0.288,3.7395 0.7833,0.3685 2.1211,-19.9352 2.2048,22.1054 8.6366,4.6644 13.1255,-1.1608 1.6478,-7.4937 V 92.117 h 2.1983 l 6.6966,-30.5405 6.3561,30.5405 h 2.571 v 8.4433 l 0.866,5.6696 10.3456,-0.9037 v -9.2784 h 2.1453 l 6.9103,-28.1055 6.599,28.1055 2.071,-0.0785 0.078,7.7114 36.3268,-3.358 6.7445,14.004 1.0542,41.0531 c 0.2043,7.9509 -1.1279,7.2657 -8.9654,7.2802 -31.4388,0.0578 -106.0929,-5.2928 -164.6099,0.4331 0.9822,1.2374 1.7048,2.3185 2.8086,3.5161 2.2668,2.4605 4.2057,4.2594 5.9187,6.8468 1.3323,2.0129 2.5773,4.788 3.6882,7.1564 -10.7011,2.7363 -22.2058,6.8009 -32.1772,11.3805 -11.6507,5.3507 -22.525,11.9534 -34.6156,18.2492 l -0.1037,0.0544 -0.0491,-0.1301 c -3.5118,-9.4099 -7.4662,-18.5902 -11.135,-27.917 -3.809,3.5226 -6.0186,7.4492 -6.5654,12.1428 -0.6125,12.791 -4.2715,27.3189 -16.6356,33.7022 -4.2132,2.1756 -12.585,2.9168 -17.208,0.8504 -14.6866,-6.5645 -11.693,-26.6321 -8.6522,-43.7049 1.2004,-6.7402 2.5044,-12.4591 0.4099,-15.7461 -0.8691,-1.3641 -2.4772,-1.9299 -4.4272,-1.7952 -8.1434,0.5632 -7.7964,8.236 -5.9119,20.9321 1.8844,12.6961 2.1662,26.2015 1.9768,30.892 0.1871,3.1822 -0.8849,6.8939 -2.6228,9.2222 -3.0983,4.1514 -8.5105,5.9707 -14.0789,7.2437 -4.6372,1.0602 -9.3226,0.8289 -12.7032,0.0748 -3.3757,-0.7528 -5.6795,-2.2974 -8.1014,-1.902 -3.9367,0.6429 -6.713,2.4006 -10.5083,3.8577 -4.9252,1.8907 -9.1556,4.0351 -11.654902,4.7432 -1.7595,0.4983 -2.3842,-0.1644 -3.4512,-1.3465 -6.5052,-7.2017 -9.3597,-22.6341 -12.2596,-31.8339 -2.0897,-6.6283 -3.3242,-10.1968 -6.1597,-8.7381 -1.8257,0.9391 -4.5136,4.1298 -6.1222,9.6225 -0.7311,2.497 -1.3229,5.305 -1.3632,8.8832 -0.0411,3.6522 0.5366,14.8745 -2.1881,20.8579 -0.9856,2.164 -2.4406,2.8253 -4.2905,3.0504 -3.0175,0.3671 -8.7018,0.4382 -14.5375,0.3673 -7.1642,-0.0873 -14.5584,-0.3438 -17.5266,-1.1814 -4.0354,-1.1393 -4.583,-12.9612 -5.0233,-16.6525 -0.4546,-3.8131 0.1574,-11.7708 -0.2361,-15.8799 -2.0046,-20.9404 -2.607,-40.5924 -2.0534,-56.1339 0.0819,-2.3046 0.1001,-3.2925 -0.5808,-4.2115 -0.9828,-1.3266 -3.1845,-2.0041 -5.8425,-2.711 -3.7398,-0.9947 -10.4440005,-3.5201 -12.5847005,-4.3521 -2.8845,-1.1211 -4.83849997,-3.0682 -5.42859997,-6.002 -0.8915,-4.4295 0.85289997,-9.94 1.82349997,-12.4033 3.6094,-9.1616 7.9214,-17.6616 11.1835005,-26.5147 2.7576,-7.4846 5.8505,-14.4817 8.0235,-22.559 1.3671,-5.0797 2.4959,-10.1197 3.6879,-14.3716 1.3113,-4.6783 1.6531,-6.1413 2.26,-7.4223 2.5115,-5.3008 5.5707,-8.7052 11.9053,-10.131 5.066,-1.1407 9.8583,-0.8498 11.8944,-2.7893 1.1699,-1.114 1.9398,-5.1837 2.588,-9.4722 1.0761,-7.1164 1.7918,-11.6966 5.914,-16.4107 4.1221,-4.714 12.1365,-9.0683 21.7837,-8.4886 5.7965,0.3481 15.5228,5.1313 19.615102,9.6545 4.0924,4.5233 4.8186,8.1261 7.075,11.7536 8.9893,-8.7982 25.9934,-4.3342 31.7183,0.6358 z m 299.8227,198.8309 v 11.3127 h 9.2384 v -11.3127 h 3.231 v 10.6423 c 0,1.2734 -0.2384,2.1419 -0.711,2.6008 -0.477,0.4635 -1.3904,0.6931 -2.745,0.6931 h -8.8016 c -1.3456,0 -2.2589,-0.2296 -2.736,-0.6931 -0.4816,-0.4589 -0.72,-1.3274 -0.72,-2.6008 v -10.6423 z m -23.7189,13.9362 v -13.9362 h 3.2715 v 5.8138 l 7.7264,-5.8138 h 4.6933 l -9.2293,6.5653 10.3632,7.3709 h -5.2064 l -8.3472,-6.1288 v 6.1288 z m -10.3631,0 v -13.9362 h 3.2442 v 13.9362 z m -18.4451,0 v -13.9362 h 3.2443 v 11.3127 h 10.4533 v 2.6235 z m -10.3632,0 v -13.9362 h 3.2443 v 13.9362 z m -18.1122,0 v -13.9362 h 14.0936 v 2.4389 h -10.8494 v 3.6674 h 5.868 v 2.5424 h -5.868 v 5.2875 z m -20.7491,-2.6235 h 10.6872 v -8.8197 h -10.6872 z m -3.2445,-8.0144 c 0,-1.2687 0.2384,-2.1327 0.7109,-2.6007 0.4771,-0.4635 1.3904,-0.6976 2.7451,-0.6976 h 10.2507 c 1.3543,0 2.268,0.2341 2.745,0.6976 0.4726,0.468 0.711,1.332 0.711,2.6007 v 7.344 c 0,1.2734 -0.2384,2.1419 -0.711,2.6008 -0.477,0.4635 -1.3907,0.6931 -2.745,0.6931 h -10.2507 c -1.3547,0 -2.268,-0.2296 -2.7451,-0.6931 -0.4725,-0.4589 -0.7109,-1.3274 -0.7109,-2.6008 z m -24.736,10.6379 v -13.9362 h 2.6235 l 6.5653,8.424 6.4214,-8.424 h 2.5965 v 13.9362 h -3.0062 v -8.6082 c 0,-0.1667 0.009,-0.3782 0.0315,-0.6347 0.0227,-0.2563 0.0542,-0.54 0.0856,-0.855 -0.1754,0.36 -0.3285,0.6571 -0.4589,0.8867 -0.1307,0.2339 -0.252,0.4275 -0.3555,0.576 l -5.2336,6.9613 h -0.648 l -5.2466,-6.9885 c -0.1936,-0.2653 -0.36,-0.5128 -0.4952,-0.7469 -0.135,-0.2296 -0.2475,-0.4589 -0.3374,-0.6749 0.027,0.288 0.0494,0.5533 0.063,0.7874 0.0136,0.2384 0.0181,0.468 0.0181,0.6886 v 8.6082 z m -20.353,0 v -13.9362 h 14.269 v 2.3714 h -11.0247 v 3.1139 h 6.4349 v 2.3714 h -6.4349 v 3.456 h 11.1554 v 2.6235 z m -23.7549,0 v -13.9362 h 3.2443 v 5.4045 h 10.1205 v -5.4045 h 3.2715 v 13.9362 h -3.2715 v -5.9984 h -10.1205 v 5.9984 z m 173.1112,-25.4375 v -1.5166 l 9.7424,-9.9266 h -8.7658 v -2.4931 h 13.9856 v 1.3862 l -9.8862,9.9266 h 9.8862 v 2.6235 z m -21.5679,0 7.8837,-13.9363 h 3.1229 l 7.992,13.9363 h -3.6405 l -1.6739,-3.0419 h -8.8333 l -1.62,3.0419 z m 6.2368,-5.5619 h 6.1018 l -3.0058,-5.6699 z m -16.2941,5.5619 -8.055,-13.9363 h 3.7035 l 5.6429,10.0755 5.3773,-10.0755 h 3.231 l -7.659,13.9363 z m -14.4763,-11.4974 h -9.1213 v 2.9926 h 8.6848 c 1.3634,0 2.2858,0.2338 2.7629,0.6973 0.4813,0.468 0.72,1.332 0.72,2.6011 v 1.9125 c 0,1.2645 -0.2387,2.1283 -0.72,2.5963 -0.4771,0.4637 -1.3995,0.6976 -2.7629,0.6976 h -8.604 c -1.3635,0 -2.2859,-0.2339 -2.763,-0.6976 -0.4813,-0.468 -0.72,-1.3318 -0.72,-2.5963 v -0.3827 l 2.8622,-0.5938 v 1.6469 h 9.8456 v -3.1768 h -8.6848 c -1.3544,0 -2.2677,-0.2341 -2.7448,-0.6976 -0.4726,-0.468 -0.7109,-1.332 -0.7109,-2.6011 v -1.5389 c 0,-1.2688 0.2383,-2.1328 0.7109,-2.6008 0.4771,-0.4634 1.3904,-0.6976 2.7448,-0.6976 h 7.9064 c 1.3096,0 2.2138,0.2251 2.709,0.6704 0.4995,0.4501 0.747,1.2467 0.747,2.3896 v 0.288 l -2.8619,0.6749 z m -38.1546,-3.9149 2.6909,-4.5629 h 2.9251 l -3.888,4.5629 z m 0.3152,15.4123 v -6.2368 l -7.236,-7.6995 h 4.3245 l 4.7832,5.3549 4.8016,-5.3549 h 3.8115 l -7.2136,7.6229 v 6.3134 z m -25.3256,0 v -13.9363 h 3.2715 v 5.8139 l 7.7264,-5.8139 h 4.6933 l -9.2293,6.5653 10.3632,7.371 h -5.2064 l -8.3472,-6.1288 v 6.1288 z m -9.7693,-11.4974 h -9.1213 v 2.9926 h 8.6848 c 1.3634,0 2.2858,0.2338 2.7629,0.6973 0.4813,0.468 0.72,1.332 0.72,2.6011 v 1.9125 c 0,1.2645 -0.2387,2.1283 -0.72,2.5963 -0.4771,0.4637 -1.3995,0.6976 -2.7629,0.6976 h -8.604 c -1.3635,0 -2.2859,-0.2339 -2.763,-0.6976 -0.4813,-0.468 -0.72,-1.3318 -0.72,-2.5963 v -0.3827 l 2.8622,-0.5938 v 1.6469 h 9.8456 v -3.1768 h -8.6848 c -1.3544,0 -2.2677,-0.2341 -2.7448,-0.6976 -0.4726,-0.468 -0.7109,-1.332 -0.7109,-2.6011 v -1.5389 c 0,-1.2688 0.2383,-2.1328 0.7109,-2.6008 0.4771,-0.4634 1.3904,-0.6976 2.7448,-0.6976 h 7.9064 c 1.3096,0 2.2138,0.2251 2.709,0.6704 0.4995,0.4501 0.747,1.2467 0.747,2.3896 v 0.288 l -2.8619,0.6749 z m -32.4533,11.4974 v -13.9363 h 14.2691 v 2.3715 h -11.0248 v 3.1138 h 6.4349 v 2.3715 h -6.4349 v 3.456 h 11.1554 v 2.6235 z m -9.9269,-11.4432 h -8.7387 v 8.8197 h 8.7387 v -2.9925 l 3.2445,0.6706 v 1.6515 c 0,1.2733 -0.2387,2.1419 -0.72,2.6008 -0.4771,0.4635 -1.3904,0.6931 -2.736,0.6931 h -8.3157 c -1.3547,0 -2.268,-0.2296 -2.7451,-0.6931 -0.4725,-0.4589 -0.7109,-1.3275 -0.7109,-2.6008 v -7.344 c 0,-1.2688 0.2384,-2.1328 0.7109,-2.6008 0.4771,-0.4634 1.3904,-0.6976 2.7451,-0.6976 h 8.3157 c 1.3456,0 2.2589,0.2342 2.736,0.6976 0.4813,0.468 0.72,1.332 0.72,2.6008 v 1.3187 l -3.2445,0.5128 z m -8.2392,-8.5601 h 1.7008 l 2.2141,2.7587 2.187,-2.7587 h 1.728 l -2.4795,4.5902 h -2.8709 z m 172.3147,26.4779 c 0,-0.3974 0.0731,-0.671 0.2242,-0.8153 0.1466,-0.1465 0.4306,-0.216 0.8555,-0.216 h 3.2043 c 0.4249,0 0.709,0.0695 0.8561,0.216 0.1505,0.1443 0.2236,0.4179 0.2236,0.8153 v 2.2926 c 0,0.4003 -0.0731,0.6693 -0.2236,0.8136 -0.1471,0.1477 -0.4312,0.2154 -0.8561,0.2154 h -3.2043 c -0.4249,0 -0.7089,-0.0677 -0.8555,-0.2154 -0.1511,-0.1443 -0.2242,-0.4133 -0.2242,-0.8136 z m 1.3119,0.5601 c 0,-0.203 0.0374,-0.3427 0.1145,-0.4164 0.0748,-0.0748 0.22,-0.1103 0.4371,-0.1103 h 1.6367 c 0.2172,0 0.3623,0.0355 0.4374,0.1103 0.0768,0.0737 0.1143,0.2134 0.1143,0.4164 v 1.1713 c 0,0.2044 -0.0375,0.3418 -0.1143,0.4155 -0.0751,0.0754 -0.2202,0.11 -0.4374,0.11 h -1.6367 c -0.2171,0 -0.3623,-0.0346 -0.4371,-0.11 -0.0771,-0.0737 -0.1145,-0.2111 -0.1145,-0.4155 z"
     style="fill:#1b1918;fill-rule:evenodd"
     id="path3713"
     inkscape:connector-curvature="0" />
  <path
     d="m 121.31044,34.4911 c 3.9847,-0.3359 10.533,2.5623 15.7209,7.0665 5.1886,4.5045 9.0187,10.616 11.8106,13.4036 6.1421,6.1316 6.7099,5.1611 14.5275,7.0141 20.1589,4.7764 38.7417,16.7071 51.7853,32.7415 3.0039,3.6927 5.6617,7.3843 6.6433,10.9676 2.1033,7.6787 -2.8998,12.3905 -8.9215,11.4871 -1.9241,-0.2886 -3.8199,-1.2186 -5.6814,-2.4976 -5.3893,-3.7029 -9.258,-9.8464 -11.151,-12.2454 -2.717,-3.4435 -5.631,-6.4029 -8.0172,-8.7883 -6.7655,-6.7631 -12.49,-7.1603 -12.8662,3.6196 -0.1737,4.9725 1.567,11.9548 3.6445,19.5619 2.0838,7.6286 4.2412,13.6522 6.7476,19.0321 3.6632,7.8624 7.6708,14.3518 9.9652,22.4714 2.8199,9.9793 3.0385,23.6928 1.4267,39.1841 -0.6035,5.8028 -1.3368,11.8052 -4.8728,16.0231 -4.2528,5.0729 -11.5027,6.7454 -14.4419,1.1172 -2.7012,-5.1718 -1.1775,-18.5508 -0.0882,-24.1373 1.2923,-6.6288 2.7774,-13.4858 3.0002,-19.2674 0.4351,-11.2856 -4.3211,-26.3293 -18.4555,-25.3519 -8.2043,0.5678 -12.4121,6.0264 -15.1603,13.2004 -1.4703,3.8378 -2.5157,10.0255 -2.5157,15.5468 0,5.817 0.3872,11.4534 1.2756,16.8668 0.8884,5.4133 2.2751,10.6086 2.594,16.0321 0.1502,2.5558 0.6808,5.844 -0.0712,7.9821 -0.4564,1.2969 -1.6344,2.4083 -3.4838,3.4478 -7.9251,4.4541 -13.5932,0.3373 -16.2,-7.9608 -1.4437,-4.5958 -2.1943,-9.1304 -2.8757,-14.1945 -1.1041,-8.2006 -1.825,-18.4354 -1.8992,-21.1683 -0.3121,-11.461 2.7731,-20.3924 4.4067,-31.5802 1.1007,-7.5393 1.5024,-16.1138 1.7719,-24.2909 0.2696,-8.1766 0.4091,-16.5538 -0.445,-24.8928 -0.1735,-1.6934 -1.3827,-1.3946 -3.4305,-1.6778 -6.6535,-0.9207 -13.9371,-1.904 -20.8839,-2.844 -2.4126,-0.3263 -5.0899,-0.7398 -7.635702,-1.0794 -1.135,-0.1514 -2.2136,-0.379 -3.2843,-0.4221 -0.4056,-0.0162 -0.519,-0.1137 -0.4614,0.9587 0.0751,1.4048 0.2551,2.8239 0.5553,4.4158 6.120002,32.4264 12.046402,64.9049 18.056702,97.361 1.9012,10.2665 1.9717,13.7174 3.5659,20.3956 0.8201,3.435 2.2709,8.2715 1.1725,10.9576 -0.5432,1.3277 -1.7283,2.3312 -4.0085,2.677 -6.1342,0.9309 -6.503,0.6409 -8.0065,-0.7424 -2.4919,-2.2929 -4.5003,-9.1437 -6.875402,-16.3879 -3.1124,-9.491 -6.1347,-19.1546 -7.4446,-23.3541 -3.6797,-11.7921 -7.5359,-24.8264 -11.3814,-35.79 -0.8229,-2.3453 -4.1046,-1.6514 -4.6871,0.7782 -5.1225,21.3703 -9.9315,42.87 -16.8576,63.8756 -1.2779,3.8758 -2.4611,7.8006 -4.5961,10.2484 -1.3961,1.6007 -11.321,2.2481 -11.8418,-0.8201 -0.629,-3.7066 -0.3492,-7.52 -0.0541,-11.2365 0.5638,-7.0952 1.9531,-14.0965 2.5668,-21.1374 1.2163,-13.9507 0.8487,-28.1027 1.9797,-42.0495 0.453,-5.5907 1.4176,-24.6982 1.1355,-35.3658 -0.1284,-4.849 0.309,-7.926 -0.6066,-7.1442 -4.0802,3.6751 -7.7788,12.2564 -10.961,18.9383 -1.9485,4.0921 -3.5254,7.4724 -5.4014,8.5776 -0.8969,0.5284 -3.5918,0.9774 -6.5004,0.4195 -2.431,-0.4663 -3.6992,-1.9377 -4.3299,-3.3718 -0.8397,-1.9108 -0.2872,-4.079 0.5442,-6.1891 2.9804,-7.5643 6.2555,-14.8944 9.2217,-22.4972 3.5801,-9.1755 6.8763,-18.6191 10.8037,-27.6415 2.1407,-4.9172 8.0926,-18.9652 13.189,-20.7235 2.4843,-0.8569 5.2211,-1.2444 8.0113,-1.3326 2.3559,-0.0748 4.852,0.1315 6.5327,-0.3041 0.2639,-0.0797 0.1987,-0.2112 0.1862,-0.3881 -0.2307,-2.4131 -0.7945,-11.3394 1.738,-18.7138 1.0692,-3.113 2.5971,-6.1401 5.0865,-7.9758 5.1652,-3.8086 11.8536,-1.705 15.692,2.4029 1.8533,1.9846 2.6229,3.985 3.0654,6.4826 0.5451,3.073 0.7262,7.1149 0.5975,10.7654 -0.1162,3.306 -0.4206,6.3312 -1.3691,7.9265 -0.3796,0.6384 0.0102,1.1245 0.7662,1.7297 2.7666,2.2142 7.040702,3.6836 11.260602,5.4077 6.1013,2.4928 10.6767,5.4873 17.4509,2.5324 2.4339,-1.0618 5.9196,-3.1847 6.325,-6.9358 0.0547,-0.5079 -0.1463,-0.504 -0.519,-0.3512 -2.2493,0.9218 -4.6605,1.5664 -7.0336,1.5341 -5.8765,-0.0799 -11.24,-3.4934 -11.24,-11.0968 0,-6.1701 3.7633,-10.5307 11.7332,-11.2025 z m 91.0327,134.7491 c 9.9192,-3.9568 20.2268,-6.9874 30.9738,-8.85 10.9216,-1.8927 21.8192,-3.7627 31.8569,-7.143 2.2099,4.7548 5.3878,9.2571 9.2974,13.5 0.0144,0.0156 0.0286,0.0314 0.0428,0.0467 -0.0267,-0.028 -0.0527,-0.0564 -0.0794,-0.0844 -10.938,3.422 -22.1284,6.1407 -32.9802,9.6874 -1.3649,0.4462 -2.7239,0.9119 -4.0771,1.3949 0.002,-0.003 0.004,-0.006 0.006,-0.009 -6.1789,-1.1387 -12.2601,-2.387 -18.1462,-3.9112 -5.7487,-1.4888 -11.3715,-3.0991 -16.8574,-4.5323 -0.0125,-0.0329 -0.0244,-0.0661 -0.0365,-0.0993 z"
     style="fill:#ffffff;fill-rule:evenodd"
     id="path3715"
     inkscape:connector-curvature="0" />
  <path
     d="m 72.377638,55.9485 c -1.1619,0.7407 -3.6621,1.8669 -6.8539,2.0231 -5.6441,0.2767 -12.1686,1.1625 -14.9221,6.9242 -8.7922,18.3915 -16.1929,37.6798 -24.0472,56.5308 -1.5919,3.8214 -2.5067,6.3159 -2.3581,7.7335 0.1927,1.8377 1.999,2.8797 3.7803,1.6509 2.2478,-1.5512 3.49,-5.3306 5.3365,-8.7393 4.062,-7.4996 8.6465,-17.2927 14.2778,-22.924 2.1081,-2.1081 5.7039,-0.3549 6.086,2.8034 0.4198,3.4722 0.3019,8.398 0.2231,13.7192 -0.1525,10.313 -1.0871,21.1597 -1.8477,32.1329 -0.9124,13.1667 -1.1656,26.3971 -2.1472,39.5677 -0.1925,2.5824 -0.5576,5.0695 -0.8014,7.6025 -0.5485,5.6965 -1.5409,12.3597 -1.976,16.5878 -0.4351,4.2282 -0.8708,5.4527 -0.5777,7.4702 0.2245,1.5451 1.0222,2.4423 2.4194,2.4545 0.6755,0.006 1.4587,-0.1568 2.0486,-0.9482 1.5072,-2.022 2.6002,-6.4692 3.6879,-10.2572 1.5137,-5.2704 1.7121,-5.8408 3.3709,-11.6722 1.6588,-5.8314 6.0225,-22.1508 9.1715,-33.304 0.6568,-2.3261 1.2552,-4.7908 1.8343,-7.3091 0.6562,-2.8539 1.2878,-5.777 1.9505,-8.6451 0.8527,-3.6884 1.641,-7.3057 3.0705,-10.5032 0.9561,-2.1382 2.5359,-2.736 4.1709,-1.1004 3.4886,3.4894 7.2207,15.9477 10.6866,27.3832 2.8389,9.3657 6.5364,21.3693 9.0031,28.8936 0.9831,2.9985 2.563702,9.0864 4.309002,14.845 1.3104,4.3245 2.6407,8.6851 4.2877,10.1906 2.622,2.4035 5.997,0.7463 6.1081,-3.6329 0.0921,-3.6303 -1.0412,-7.795 -1.7286,-11.4171 -0.7954,-4.1899 -1.6631,-8.3651 -2.5568,-12.5331 -2.7593,-12.8645 -7.7239,-35.3563 -10.658302,-52.0957 -1.5293,-8.7248 -4.8407,-28.2152 -7.4098,-42.3731 -0.5726,-3.1561 -1.2217,-5.9834 -0.8824,-8.2236 0.3745,-2.4724 3.0438,-3.4767 6.126,-3.1584 1.6415,0.1695 6.605802,0.978 12.084602,1.8173 6.018,0.9218 12.5833,1.9137 14.4315,1.5335 9.1307,-1.8773 -3.3449,-13.0424 -14.7135,-20.3351 -6.4874,-4.1616 -12.440202,-6.7301 -12.553802,-6.7868 -1.0313,-0.5144 -2.7709,-1.2863 -4.4425,-2.0089 -2.2578,-0.9756 -5.5939,-2.0582 -3.994,-5.2078 2.7938,-5.4989 3.8409,-10.3515 2.8389,-16.7105 -0.779,-4.943 -3.2474,-8.9637 -8.0379,-9.0737 -8.1746,-0.1876 -10.2861,15.552 -8.3004,23.8552 0.3345,1.4077 0.9876,2.2955 -0.4944,3.2403 z M 228.02574,209.539 c 10.6634,-5.5536 20.9614,-11.9024 31.6327,-17.0569 10.7515,-5.1939 22.2593,-8.7852 34.1084,-12.2397 -1.0258,-2.4832 -2.196,-4.932 -3.7553,-7.128 -1.6124,-2.2712 -3.5847,-4.3025 -5.5769,-6.4049 -10.938,3.422 -22.1284,6.1407 -32.9802,9.6874 -1.3649,0.4462 -2.7239,0.9119 -4.0771,1.3949 -3.0634,4.5459 -6.1807,9.4765 -9.3124,14.7821 -3.2666,5.5347 -6.5928,11.2502 -10.0392,16.9651 z"
     style="fill:#e30016;fill-rule:evenodd"
     id="path3717"
     inkscape:connector-curvature="0" />
  <path
     d="m 228.02574,209.539 17.38697,-30.54923 -32.96004,-8.68772 z"
     style="fill:#005d92;fill-rule:evenodd;stroke-width:1.13016605"
     id="path3719"
     inkscape:connector-curvature="0" />
</svg>
