<?xml version="1.0" encoding="UTF-8" standalone="no"?>
<svg
   xmlns:dc="http://purl.org/dc/elements/1.1/"
   xmlns:cc="http://creativecommons.org/ns#"
   xmlns:rdf="http://www.w3.org/1999/02/22-rdf-syntax-ns#"
   xmlns:svg="http://www.w3.org/2000/svg"
   xmlns="http://www.w3.org/2000/svg"
   xmlns:sodipodi="http://sodipodi.sourceforge.net/DTD/sodipodi-0.dtd"
   xmlns:inkscape="http://www.inkscape.org/namespaces/inkscape"
   version="1.1"
   width="250.37505"
   height="250.37505"
   id="svg3721"
   sodipodi:docname="logo_postavy.svg"
   inkscape:version="0.92.3 (2405546, 2018-03-11)">
  <metadata
     id="metadata3727">
    <rdf:RDF>
      <cc:Work
         rdf:about="">
        <dc:format>image/svg+xml</dc:format>
        <dc:type
           rdf:resource="http://purl.org/dc/dcmitype/StillImage" />
        <dc:title></dc:title>
      </cc:Work>
    </rdf:RDF>
  </metadata>
  <defs
     id="defs3725" />
  <sodipodi:namedview
     pagecolor="#ffffff"
     bordercolor="#666666"
     borderopacity="1"
     objecttolerance="10"
     gridtolerance="10"
     guidetolerance="10"
     inkscape:pageopacity="0"
     inkscape:pageshadow="2"
     inkscape:window-width="1366"
     inkscape:window-height="705"
     id="namedview3723"
     showgrid="false"
     inkscape:zoom="1.4897651"
     inkscape:cx="90.353921"
     inkscape:cy="182.10934"
     inkscape:window-x="-8"
     inkscape:window-y="-8"
     inkscape:window-maximized="1"
     inkscape:current-layer="layer1"
     fit-margin-top="0"
     fit-margin-left="0"
     fit-margin-right="0"
     fit-margin-bottom="0" />
  <g
     id="g4743"
     transform="translate(-62.425941,-308.24859)" />
  <g
     inkscape:groupmode="layer"
     id="layer1"
     inkscape:label="Layer 1"
     style="display:inline"
     transform="translate(-58.39846,-41.092384)">
    <circle
       style="display:inline;fill:#ffffff;fill-opacity:1;stroke:none;stroke-width:5.69999981;stroke-miterlimit:4;stroke-dasharray:none;stroke-opacity:1"
       id="path4745"
       cx="183.58598"
       cy="166.27991"
       r="125.18752" />
  </g>
  <g
     inkscape:groupmode="layer"
     id="layer2"
     inkscape:label="Layer 2"
     style="display:inline"
     transform="translate(-58.39846,-41.092384)">
    <g
       transform="translate(-4.0274808,-267.15621)"
       id="g4752">
      <path
         style="fill:#ffffff;fill-rule:evenodd;stroke:#000000;stroke-width:5.69999981;stroke-miterlimit:4;stroke-dasharray:none;stroke-opacity:1"
         d="m 149.96875,322.79883 c -10.12876,0.34682 -13.88295,11.88244 -14.47266,20.33203 -0.48333,2.9135 0.10216,6.57374 -0.44921,9.00391 -7.08652,-0.27719 -15.81534,0.25938 -19.34571,7.57617 -11.82439,20.09144 -17.561755,42.96693 -27.267984,64.01437 -2.968782,4.55422 -2.556594,12.21947 3.467205,13.90164 4.901479,1.62764 11.040979,0.18887 12.825479,-5.1975 3.43278,-6.49218 5.9958,-13.45534 10.0378,-19.61695 0.33812,25.15793 -2.22848,50.19933 -2.76799,75.363 -0.26397,12.55322 -4.95442,25.52862 -2.41756,38.18192 3.45922,3.95443 10.40619,3.35081 14.6543,0.97656 5.96348,-8.12543 7.05127,-18.77559 10.39423,-28.09784 4.59462,-15.74268 7.80794,-31.99169 12.15265,-47.69903 1.95979,1.72661 2.27918,6.69801 3.65357,9.4462 7.12985,21.21767 12.48184,43.11363 20.87963,63.87021 1.83096,4.9201 7.43446,5.61657 11.88086,4.23437 5.83991,-0.36112 7.17513,-7.19641 5.46289,-11.78125 -4.43237,-20.73794 -7.40106,-42.03608 -11.64849,-62.93629 -3.72565,-20.62033 -7.77094,-41.18943 -11.39253,-61.82347 10.53141,1.51296 21.07391,2.97224 31.62696,4.31835 1.55227,22.16198 0.16405,45.03169 -4.77066,66.95207 -2.39311,15.21586 0.12578,30.75433 2.87613,45.74715 1.1432,7.33107 6.68175,16.47356 15.32812,14.47657 5.20756,-0.92672 10.7412,-5.07347 9.62305,-10.97461 -1.04155,-17.19775 -7.74959,-34.73151 -1.78906,-51.75196 2.15282,-8.11467 10.74326,-14.42036 19.11132,-11.22656 10.49337,4.52622 11.5823,18.58106 10.125,28.06055 -1.66242,12.72342 -6.66466,26.33779 -2.13671,38.98047 3.75911,7.44743 14.28167,4.55314 18.10742,-1.30664 6.21765,-9.22 4.92468,-21.16877 5.91698,-31.72444 0.80718,-14.60641 -2.33941,-29.31217 -9.79394,-41.96306 -6.73993,-13.52936 -11.77002,-28.21352 -12.95898,-43.30274 -0.74421,-3.79641 2.2104,-9.09909 6.10937,-5.11914 10.74275,7.24759 15.07195,21.79336 27.64258,26.54883 6.99801,2.7151 14.87543,-3.91125 13.27344,-11.28711 -2.26809,-10.937 -11.59609,-18.68779 -19.23344,-26.13823 -13.67065,-12.1505 -30.87758,-19.68228 -48.72359,-23.12349 -9.70012,-5.75114 -13.90372,-17.90257 -24.48242,-22.74219 -7.48316,-5.20091 -20.50309,-3.63643 -23.54688,5.89453 -2.83146,7.80841 2.78877,17.29535 11.38672,17.35938 1.44636,0.44169 4.93728,-0.62565 5.02734,-0.12305 -5.85261,5.62265 -14.04818,2.27122 -20.20773,-0.82657 -2.88474,-1.637 -8.25114,-2.34172 -9.4993,-5.24179 1.53495,-7.80825 2.03638,-16.70241 -1.50781,-24.04101 -2.78201,-4.37263 -7.92841,-7.33282 -13.15039,-7.19336 z"
         id="path3761"
         inkscape:connector-curvature="0" />
      <path
         inkscape:connector-curvature="0"
         style="fill:#e30016;fill-rule:evenodd"
         d="m 142.0971,357.4417 c -1.1619,0.7407 -3.6621,1.8669 -6.8539,2.0231 -5.6441,0.2767 -12.1686,1.1625 -14.9221,6.9242 -8.7922,18.3915 -16.1929,37.6798 -24.0472,56.5308 -1.5919,3.8214 -2.5067,6.3159 -2.3581,7.7335 0.1927,1.8377 1.999,2.8797 3.7803,1.6509 2.2478,-1.5512 3.49,-5.3306 5.3365,-8.7393 4.062,-7.4996 8.6465,-17.2927 14.2778,-22.924 2.1081,-2.1081 5.7039,-0.3549 6.086,2.8034 0.4198,3.4722 0.3019,8.398 0.2231,13.7192 -0.1525,10.313 -1.0871,21.1597 -1.8477,32.1329 -0.9124,13.1667 -1.1656,26.3971 -2.1472,39.5677 -0.1925,2.5824 -0.5576,5.0695 -0.8014,7.6025 -0.5485,5.6965 -1.5409,12.3597 -1.976,16.5878 -0.4351,4.2282 -0.8708,5.4527 -0.5777,7.4702 0.2245,1.5451 1.0222,2.4423 2.4194,2.4545 0.6755,0.006 1.4587,-0.1568 2.0486,-0.9482 1.5072,-2.022 2.6002,-6.4692 3.6879,-10.2572 1.5137,-5.2704 1.7121,-5.8408 3.3709,-11.6722 1.6588,-5.8314 6.0225,-22.1508 9.1715,-33.304 0.6568,-2.3261 1.2552,-4.7908 1.8343,-7.3091 0.6562,-2.8539 1.2878,-5.777 1.9505,-8.6451 0.8527,-3.6884 1.641,-7.3057 3.0705,-10.5032 0.9561,-2.1382 2.5359,-2.736 4.1709,-1.1004 3.4886,3.4894 7.2207,15.9477 10.6866,27.3832 2.8389,9.3657 6.5364,21.3693 9.0031,28.8936 0.9831,2.9985 2.5637,9.0864 4.309,14.845 1.3104,4.3245 2.6407,8.6851 4.2877,10.1906 2.622,2.4035 5.997,0.7463 6.1081,-3.6329 0.0921,-3.6303 -1.0412,-7.795 -1.7286,-11.4171 -0.7954,-4.1899 -1.6631,-8.3651 -2.5568,-12.5331 -2.7593,-12.8645 -7.7239,-35.3563 -10.6583,-52.0957 -1.5293,-8.7248 -4.8407,-28.2152 -7.4098,-42.3731 -0.5726,-3.1561 -1.2217,-5.9834 -0.8824,-8.2236 0.3745,-2.4724 3.0438,-3.4767 6.126,-3.1584 1.6415,0.1695 6.6058,0.978 12.0846,1.8173 6.018,0.9218 12.5833,1.9137 14.4315,1.5335 9.1307,-1.8773 -3.3449,-13.0424 -14.7135,-20.3351 -6.4874,-4.1616 -12.4402,-6.7301 -12.5538,-6.7868 -1.0313,-0.5144 -2.7709,-1.2863 -4.4425,-2.0089 -2.2578,-0.9756 -5.5939,-2.0582 -3.994,-5.2078 2.7938,-5.4989 3.8409,-10.3515 2.8389,-16.7105 -0.779,-4.943 -3.2474,-8.9637 -8.0379,-9.0737 -8.1746,-0.1876 -10.2861,15.552 -8.3004,23.8552 0.3345,1.4077 0.9876,2.2955 -0.4944,3.2403 z"
         id="path3858" />
    </g>
  </g>
</svg>
